<mxfile host="app.diagrams.net" agent="Mozilla/5.0 (Windows NT 10.0; Win64; x64) AppleWebKit/537.36 (KHTML, like Gecko) Chrome/129.0.0.0 Safari/537.36" version="24.7.17">
  <diagram id="C5RBs43oDa-KdzZeNtuy" name="Page-1">
    <mxGraphModel dx="1272" dy="501" grid="1" gridSize="10" guides="1" tooltips="1" connect="1" arrows="1" fold="1" page="1" pageScale="1" pageWidth="827" pageHeight="1169" math="0" shadow="0">
      <root>
        <mxCell id="WIyWlLk6GJQsqaUBKTNV-0" />
        <mxCell id="WIyWlLk6GJQsqaUBKTNV-1" parent="WIyWlLk6GJQsqaUBKTNV-0" />
        <mxCell id="D3r67NptOrPsIdnhS9hk-1" style="edgeStyle=orthogonalEdgeStyle;rounded=0;orthogonalLoop=1;jettySize=auto;html=1;" edge="1" parent="WIyWlLk6GJQsqaUBKTNV-1" source="D3r67NptOrPsIdnhS9hk-0" target="D3r67NptOrPsIdnhS9hk-3">
          <mxGeometry relative="1" as="geometry">
            <mxPoint x="120" y="220" as="targetPoint" />
          </mxGeometry>
        </mxCell>
        <mxCell id="D3r67NptOrPsIdnhS9hk-0" value="START" style="ellipse;whiteSpace=wrap;html=1;" vertex="1" parent="WIyWlLk6GJQsqaUBKTNV-1">
          <mxGeometry x="60" y="100" width="120" height="80" as="geometry" />
        </mxCell>
        <mxCell id="D3r67NptOrPsIdnhS9hk-5" style="edgeStyle=orthogonalEdgeStyle;rounded=0;orthogonalLoop=1;jettySize=auto;html=1;exitX=0.5;exitY=1;exitDx=0;exitDy=0;" edge="1" parent="WIyWlLk6GJQsqaUBKTNV-1" source="D3r67NptOrPsIdnhS9hk-3" target="D3r67NptOrPsIdnhS9hk-6">
          <mxGeometry relative="1" as="geometry">
            <mxPoint x="120" y="360" as="targetPoint" />
          </mxGeometry>
        </mxCell>
        <mxCell id="D3r67NptOrPsIdnhS9hk-3" value="Masukkan umur:" style="rounded=1;whiteSpace=wrap;html=1;" vertex="1" parent="WIyWlLk6GJQsqaUBKTNV-1">
          <mxGeometry x="60" y="250" width="120" height="40" as="geometry" />
        </mxCell>
        <mxCell id="D3r67NptOrPsIdnhS9hk-4" value="" style="shape=flexArrow;endArrow=classic;html=1;rounded=0;" edge="1" parent="WIyWlLk6GJQsqaUBKTNV-1">
          <mxGeometry width="50" height="50" relative="1" as="geometry">
            <mxPoint x="20" y="260" as="sourcePoint" />
            <mxPoint x="60" y="260.5" as="targetPoint" />
          </mxGeometry>
        </mxCell>
        <mxCell id="D3r67NptOrPsIdnhS9hk-7" style="edgeStyle=orthogonalEdgeStyle;rounded=0;orthogonalLoop=1;jettySize=auto;html=1;exitX=0.5;exitY=1;exitDx=0;exitDy=0;" edge="1" parent="WIyWlLk6GJQsqaUBKTNV-1" source="D3r67NptOrPsIdnhS9hk-6" target="D3r67NptOrPsIdnhS9hk-12">
          <mxGeometry relative="1" as="geometry">
            <mxPoint x="120" y="480" as="targetPoint" />
          </mxGeometry>
        </mxCell>
        <mxCell id="D3r67NptOrPsIdnhS9hk-8" value="yes" style="edgeLabel;html=1;align=center;verticalAlign=middle;resizable=0;points=[];" vertex="1" connectable="0" parent="D3r67NptOrPsIdnhS9hk-7">
          <mxGeometry x="0.0272" y="1" relative="1" as="geometry">
            <mxPoint as="offset" />
          </mxGeometry>
        </mxCell>
        <mxCell id="D3r67NptOrPsIdnhS9hk-9" style="edgeStyle=orthogonalEdgeStyle;rounded=0;orthogonalLoop=1;jettySize=auto;html=1;exitX=1;exitY=0.5;exitDx=0;exitDy=0;" edge="1" parent="WIyWlLk6GJQsqaUBKTNV-1" source="D3r67NptOrPsIdnhS9hk-6" target="D3r67NptOrPsIdnhS9hk-18">
          <mxGeometry relative="1" as="geometry">
            <mxPoint x="210" y="390" as="targetPoint" />
          </mxGeometry>
        </mxCell>
        <mxCell id="D3r67NptOrPsIdnhS9hk-10" value="no" style="edgeLabel;html=1;align=center;verticalAlign=middle;resizable=0;points=[];" vertex="1" connectable="0" parent="D3r67NptOrPsIdnhS9hk-9">
          <mxGeometry x="-0.4199" y="-3" relative="1" as="geometry">
            <mxPoint as="offset" />
          </mxGeometry>
        </mxCell>
        <mxCell id="D3r67NptOrPsIdnhS9hk-6" value="18 &amp;lt; umur &amp;lt; 65&amp;nbsp;" style="rhombus;whiteSpace=wrap;html=1;" vertex="1" parent="WIyWlLk6GJQsqaUBKTNV-1">
          <mxGeometry x="80" y="350" width="80" height="80" as="geometry" />
        </mxCell>
        <mxCell id="D3r67NptOrPsIdnhS9hk-13" style="edgeStyle=orthogonalEdgeStyle;rounded=0;orthogonalLoop=1;jettySize=auto;html=1;exitX=0.5;exitY=1;exitDx=0;exitDy=0;" edge="1" parent="WIyWlLk6GJQsqaUBKTNV-1" source="D3r67NptOrPsIdnhS9hk-12" target="D3r67NptOrPsIdnhS9hk-22">
          <mxGeometry relative="1" as="geometry">
            <mxPoint x="120" y="585" as="targetPoint" />
          </mxGeometry>
        </mxCell>
        <mxCell id="D3r67NptOrPsIdnhS9hk-12" value="Return True" style="rounded=0;whiteSpace=wrap;html=1;" vertex="1" parent="WIyWlLk6GJQsqaUBKTNV-1">
          <mxGeometry x="60" y="480" width="120" height="60" as="geometry" />
        </mxCell>
        <mxCell id="D3r67NptOrPsIdnhS9hk-20" style="edgeStyle=orthogonalEdgeStyle;rounded=0;orthogonalLoop=1;jettySize=auto;html=1;exitX=1;exitY=0.5;exitDx=0;exitDy=0;" edge="1" parent="WIyWlLk6GJQsqaUBKTNV-1" source="D3r67NptOrPsIdnhS9hk-18" target="D3r67NptOrPsIdnhS9hk-21">
          <mxGeometry relative="1" as="geometry">
            <mxPoint x="430" y="390" as="targetPoint" />
          </mxGeometry>
        </mxCell>
        <mxCell id="D3r67NptOrPsIdnhS9hk-18" value="&quot;Umur anda tidak mencukup&quot;" style="rounded=1;whiteSpace=wrap;html=1;" vertex="1" parent="WIyWlLk6GJQsqaUBKTNV-1">
          <mxGeometry x="210" y="370" width="80" height="40" as="geometry" />
        </mxCell>
        <mxCell id="D3r67NptOrPsIdnhS9hk-19" value="" style="shape=flexArrow;endArrow=classic;html=1;rounded=0;" edge="1" parent="WIyWlLk6GJQsqaUBKTNV-1">
          <mxGeometry width="50" height="50" relative="1" as="geometry">
            <mxPoint x="290" y="410" as="sourcePoint" />
            <mxPoint x="330" y="410.5" as="targetPoint" />
          </mxGeometry>
        </mxCell>
        <mxCell id="D3r67NptOrPsIdnhS9hk-21" value="Return false" style="rounded=0;whiteSpace=wrap;html=1;" vertex="1" parent="WIyWlLk6GJQsqaUBKTNV-1">
          <mxGeometry x="350" y="365" width="80" height="50" as="geometry" />
        </mxCell>
        <mxCell id="D3r67NptOrPsIdnhS9hk-23" style="edgeStyle=orthogonalEdgeStyle;rounded=0;orthogonalLoop=1;jettySize=auto;html=1;exitX=0.5;exitY=1;exitDx=0;exitDy=0;" edge="1" parent="WIyWlLk6GJQsqaUBKTNV-1" source="D3r67NptOrPsIdnhS9hk-22" target="D3r67NptOrPsIdnhS9hk-40">
          <mxGeometry relative="1" as="geometry">
            <mxPoint x="120" y="720" as="targetPoint" />
          </mxGeometry>
        </mxCell>
        <mxCell id="D3r67NptOrPsIdnhS9hk-22" value="A" style="ellipse;whiteSpace=wrap;html=1;aspect=fixed;" vertex="1" parent="WIyWlLk6GJQsqaUBKTNV-1">
          <mxGeometry x="80" y="585" width="80" height="80" as="geometry" />
        </mxCell>
        <mxCell id="D3r67NptOrPsIdnhS9hk-26" style="edgeStyle=orthogonalEdgeStyle;rounded=0;orthogonalLoop=1;jettySize=auto;html=1;exitX=0.5;exitY=1;exitDx=0;exitDy=0;" edge="1" parent="WIyWlLk6GJQsqaUBKTNV-1" source="D3r67NptOrPsIdnhS9hk-25" target="D3r67NptOrPsIdnhS9hk-27">
          <mxGeometry relative="1" as="geometry">
            <mxPoint x="530" y="160" as="targetPoint" />
          </mxGeometry>
        </mxCell>
        <mxCell id="D3r67NptOrPsIdnhS9hk-25" value="START" style="ellipse;whiteSpace=wrap;html=1;" vertex="1" parent="WIyWlLk6GJQsqaUBKTNV-1">
          <mxGeometry x="470" y="30" width="120" height="80" as="geometry" />
        </mxCell>
        <mxCell id="D3r67NptOrPsIdnhS9hk-28" style="edgeStyle=orthogonalEdgeStyle;rounded=0;orthogonalLoop=1;jettySize=auto;html=1;" edge="1" parent="WIyWlLk6GJQsqaUBKTNV-1" source="D3r67NptOrPsIdnhS9hk-27" target="D3r67NptOrPsIdnhS9hk-29">
          <mxGeometry relative="1" as="geometry">
            <mxPoint x="530" y="260" as="targetPoint" />
          </mxGeometry>
        </mxCell>
        <mxCell id="D3r67NptOrPsIdnhS9hk-27" value="A" style="ellipse;whiteSpace=wrap;html=1;aspect=fixed;" vertex="1" parent="WIyWlLk6GJQsqaUBKTNV-1">
          <mxGeometry x="490" y="140" width="80" height="80" as="geometry" />
        </mxCell>
        <mxCell id="D3r67NptOrPsIdnhS9hk-30" style="edgeStyle=orthogonalEdgeStyle;rounded=0;orthogonalLoop=1;jettySize=auto;html=1;exitX=0.5;exitY=1;exitDx=0;exitDy=0;" edge="1" parent="WIyWlLk6GJQsqaUBKTNV-1" source="D3r67NptOrPsIdnhS9hk-29" target="D3r67NptOrPsIdnhS9hk-31">
          <mxGeometry relative="1" as="geometry">
            <mxPoint x="530" y="350" as="targetPoint" />
          </mxGeometry>
        </mxCell>
        <mxCell id="D3r67NptOrPsIdnhS9hk-29" value="Masukkan nama:" style="rounded=1;whiteSpace=wrap;html=1;" vertex="1" parent="WIyWlLk6GJQsqaUBKTNV-1">
          <mxGeometry x="475" y="270" width="110" height="40" as="geometry" />
        </mxCell>
        <mxCell id="D3r67NptOrPsIdnhS9hk-34" style="edgeStyle=orthogonalEdgeStyle;rounded=0;orthogonalLoop=1;jettySize=auto;html=1;exitX=0.5;exitY=1;exitDx=0;exitDy=0;" edge="1" parent="WIyWlLk6GJQsqaUBKTNV-1" source="D3r67NptOrPsIdnhS9hk-31" target="D3r67NptOrPsIdnhS9hk-35">
          <mxGeometry relative="1" as="geometry">
            <mxPoint x="530" y="445" as="targetPoint" />
          </mxGeometry>
        </mxCell>
        <mxCell id="D3r67NptOrPsIdnhS9hk-31" value="Masukkan password" style="rounded=1;whiteSpace=wrap;html=1;" vertex="1" parent="WIyWlLk6GJQsqaUBKTNV-1">
          <mxGeometry x="470" y="345" width="120" height="35" as="geometry" />
        </mxCell>
        <mxCell id="D3r67NptOrPsIdnhS9hk-32" value="" style="shape=flexArrow;endArrow=classic;html=1;rounded=0;" edge="1" parent="WIyWlLk6GJQsqaUBKTNV-1">
          <mxGeometry width="50" height="50" relative="1" as="geometry">
            <mxPoint x="435" y="280" as="sourcePoint" />
            <mxPoint x="475" y="280.5" as="targetPoint" />
          </mxGeometry>
        </mxCell>
        <mxCell id="D3r67NptOrPsIdnhS9hk-33" value="" style="shape=flexArrow;endArrow=classic;html=1;rounded=0;" edge="1" parent="WIyWlLk6GJQsqaUBKTNV-1">
          <mxGeometry width="50" height="50" relative="1" as="geometry">
            <mxPoint x="430" y="350" as="sourcePoint" />
            <mxPoint x="470" y="350.5" as="targetPoint" />
          </mxGeometry>
        </mxCell>
        <mxCell id="D3r67NptOrPsIdnhS9hk-36" style="edgeStyle=orthogonalEdgeStyle;rounded=0;orthogonalLoop=1;jettySize=auto;html=1;exitX=0.5;exitY=1;exitDx=0;exitDy=0;" edge="1" parent="WIyWlLk6GJQsqaUBKTNV-1" source="D3r67NptOrPsIdnhS9hk-35" target="D3r67NptOrPsIdnhS9hk-46">
          <mxGeometry relative="1" as="geometry">
            <mxPoint x="530" y="585" as="targetPoint" />
            <Array as="points">
              <mxPoint x="530" y="545" />
              <mxPoint x="531" y="545" />
            </Array>
          </mxGeometry>
        </mxCell>
        <mxCell id="D3r67NptOrPsIdnhS9hk-37" value="yes" style="edgeLabel;html=1;align=center;verticalAlign=middle;resizable=0;points=[];" vertex="1" connectable="0" parent="D3r67NptOrPsIdnhS9hk-36">
          <mxGeometry x="-0.2426" y="-3" relative="1" as="geometry">
            <mxPoint x="-3" y="-3" as="offset" />
          </mxGeometry>
        </mxCell>
        <mxCell id="D3r67NptOrPsIdnhS9hk-38" style="edgeStyle=orthogonalEdgeStyle;rounded=0;orthogonalLoop=1;jettySize=auto;html=1;exitX=1;exitY=0.5;exitDx=0;exitDy=0;" edge="1" parent="WIyWlLk6GJQsqaUBKTNV-1" source="D3r67NptOrPsIdnhS9hk-35" target="D3r67NptOrPsIdnhS9hk-39">
          <mxGeometry relative="1" as="geometry">
            <mxPoint x="610" y="480" as="targetPoint" />
          </mxGeometry>
        </mxCell>
        <mxCell id="D3r67NptOrPsIdnhS9hk-44" value="no" style="edgeLabel;html=1;align=center;verticalAlign=middle;resizable=0;points=[];" vertex="1" connectable="0" parent="D3r67NptOrPsIdnhS9hk-38">
          <mxGeometry x="-0.6621" y="-1" relative="1" as="geometry">
            <mxPoint as="offset" />
          </mxGeometry>
        </mxCell>
        <mxCell id="D3r67NptOrPsIdnhS9hk-35" value="Apakah nama sudah ada?" style="rhombus;whiteSpace=wrap;html=1;" vertex="1" parent="WIyWlLk6GJQsqaUBKTNV-1">
          <mxGeometry x="490" y="440" width="80" height="80" as="geometry" />
        </mxCell>
        <mxCell id="D3r67NptOrPsIdnhS9hk-42" style="edgeStyle=orthogonalEdgeStyle;rounded=0;orthogonalLoop=1;jettySize=auto;html=1;exitX=1;exitY=0.5;exitDx=0;exitDy=0;" edge="1" parent="WIyWlLk6GJQsqaUBKTNV-1" source="D3r67NptOrPsIdnhS9hk-39" target="D3r67NptOrPsIdnhS9hk-43">
          <mxGeometry relative="1" as="geometry">
            <mxPoint x="770" y="480" as="targetPoint" />
          </mxGeometry>
        </mxCell>
        <mxCell id="D3r67NptOrPsIdnhS9hk-39" value="&quot;Nama sudah terpakai.&quot;" style="rounded=1;whiteSpace=wrap;html=1;" vertex="1" parent="WIyWlLk6GJQsqaUBKTNV-1">
          <mxGeometry x="600" y="452.5" width="90" height="55" as="geometry" />
        </mxCell>
        <mxCell id="D3r67NptOrPsIdnhS9hk-40" value="END" style="ellipse;whiteSpace=wrap;html=1;" vertex="1" parent="WIyWlLk6GJQsqaUBKTNV-1">
          <mxGeometry x="60" y="700" width="120" height="80" as="geometry" />
        </mxCell>
        <mxCell id="D3r67NptOrPsIdnhS9hk-41" value="" style="shape=flexArrow;endArrow=classic;html=1;rounded=0;" edge="1" parent="WIyWlLk6GJQsqaUBKTNV-1">
          <mxGeometry width="50" height="50" relative="1" as="geometry">
            <mxPoint x="690" y="500" as="sourcePoint" />
            <mxPoint x="730" y="500.5" as="targetPoint" />
          </mxGeometry>
        </mxCell>
        <mxCell id="D3r67NptOrPsIdnhS9hk-43" value="Return False" style="rounded=0;whiteSpace=wrap;html=1;" vertex="1" parent="WIyWlLk6GJQsqaUBKTNV-1">
          <mxGeometry x="740" y="455" width="80" height="50" as="geometry" />
        </mxCell>
        <mxCell id="D3r67NptOrPsIdnhS9hk-47" style="edgeStyle=orthogonalEdgeStyle;rounded=0;orthogonalLoop=1;jettySize=auto;html=1;" edge="1" parent="WIyWlLk6GJQsqaUBKTNV-1" source="D3r67NptOrPsIdnhS9hk-46" target="D3r67NptOrPsIdnhS9hk-48">
          <mxGeometry relative="1" as="geometry">
            <mxPoint x="530" y="700" as="targetPoint" />
          </mxGeometry>
        </mxCell>
        <mxCell id="D3r67NptOrPsIdnhS9hk-60" value="yes" style="edgeLabel;html=1;align=center;verticalAlign=middle;resizable=0;points=[];" vertex="1" connectable="0" parent="D3r67NptOrPsIdnhS9hk-47">
          <mxGeometry x="-0.316" y="1" relative="1" as="geometry">
            <mxPoint as="offset" />
          </mxGeometry>
        </mxCell>
        <mxCell id="D3r67NptOrPsIdnhS9hk-53" style="edgeStyle=orthogonalEdgeStyle;rounded=0;orthogonalLoop=1;jettySize=auto;html=1;exitX=1;exitY=0.5;exitDx=0;exitDy=0;" edge="1" parent="WIyWlLk6GJQsqaUBKTNV-1" source="D3r67NptOrPsIdnhS9hk-46" target="D3r67NptOrPsIdnhS9hk-55">
          <mxGeometry relative="1" as="geometry">
            <mxPoint x="630" y="650" as="targetPoint" />
          </mxGeometry>
        </mxCell>
        <mxCell id="D3r67NptOrPsIdnhS9hk-59" value="no" style="edgeLabel;html=1;align=center;verticalAlign=middle;resizable=0;points=[];" vertex="1" connectable="0" parent="D3r67NptOrPsIdnhS9hk-53">
          <mxGeometry x="-0.4023" y="-3" relative="1" as="geometry">
            <mxPoint as="offset" />
          </mxGeometry>
        </mxCell>
        <mxCell id="D3r67NptOrPsIdnhS9hk-46" value="Apakah password sudah valid?" style="rhombus;whiteSpace=wrap;html=1;" vertex="1" parent="WIyWlLk6GJQsqaUBKTNV-1">
          <mxGeometry x="490" y="580" width="80" height="80" as="geometry" />
        </mxCell>
        <mxCell id="D3r67NptOrPsIdnhS9hk-49" style="edgeStyle=orthogonalEdgeStyle;rounded=0;orthogonalLoop=1;jettySize=auto;html=1;" edge="1" parent="WIyWlLk6GJQsqaUBKTNV-1" source="D3r67NptOrPsIdnhS9hk-48" target="D3r67NptOrPsIdnhS9hk-50">
          <mxGeometry relative="1" as="geometry">
            <mxPoint x="530" y="800" as="targetPoint" />
          </mxGeometry>
        </mxCell>
        <mxCell id="D3r67NptOrPsIdnhS9hk-48" value="Simpan nama dan password ke data user" style="rounded=0;whiteSpace=wrap;html=1;" vertex="1" parent="WIyWlLk6GJQsqaUBKTNV-1">
          <mxGeometry x="470" y="700" width="120" height="60" as="geometry" />
        </mxCell>
        <mxCell id="D3r67NptOrPsIdnhS9hk-51" style="edgeStyle=orthogonalEdgeStyle;rounded=0;orthogonalLoop=1;jettySize=auto;html=1;exitX=0.5;exitY=1;exitDx=0;exitDy=0;" edge="1" parent="WIyWlLk6GJQsqaUBKTNV-1" source="D3r67NptOrPsIdnhS9hk-50" target="D3r67NptOrPsIdnhS9hk-52">
          <mxGeometry relative="1" as="geometry">
            <mxPoint x="530" y="900" as="targetPoint" />
          </mxGeometry>
        </mxCell>
        <mxCell id="D3r67NptOrPsIdnhS9hk-50" value="Return True" style="rounded=0;whiteSpace=wrap;html=1;" vertex="1" parent="WIyWlLk6GJQsqaUBKTNV-1">
          <mxGeometry x="470" y="800" width="120" height="60" as="geometry" />
        </mxCell>
        <mxCell id="D3r67NptOrPsIdnhS9hk-62" style="edgeStyle=orthogonalEdgeStyle;rounded=0;orthogonalLoop=1;jettySize=auto;html=1;exitX=0.5;exitY=1;exitDx=0;exitDy=0;" edge="1" parent="WIyWlLk6GJQsqaUBKTNV-1" source="D3r67NptOrPsIdnhS9hk-52" target="D3r67NptOrPsIdnhS9hk-63">
          <mxGeometry relative="1" as="geometry">
            <mxPoint x="530" y="1030" as="targetPoint" />
          </mxGeometry>
        </mxCell>
        <mxCell id="D3r67NptOrPsIdnhS9hk-52" value="B" style="ellipse;whiteSpace=wrap;html=1;aspect=fixed;" vertex="1" parent="WIyWlLk6GJQsqaUBKTNV-1">
          <mxGeometry x="490" y="910" width="80" height="80" as="geometry" />
        </mxCell>
        <mxCell id="D3r67NptOrPsIdnhS9hk-56" style="edgeStyle=orthogonalEdgeStyle;rounded=0;orthogonalLoop=1;jettySize=auto;html=1;exitX=1;exitY=0.5;exitDx=0;exitDy=0;" edge="1" parent="WIyWlLk6GJQsqaUBKTNV-1" source="D3r67NptOrPsIdnhS9hk-55" target="D3r67NptOrPsIdnhS9hk-57">
          <mxGeometry relative="1" as="geometry">
            <mxPoint x="730" y="620" as="targetPoint" />
          </mxGeometry>
        </mxCell>
        <mxCell id="D3r67NptOrPsIdnhS9hk-55" value="&quot;Password tidak valid&quot;" style="rounded=1;whiteSpace=wrap;html=1;" vertex="1" parent="WIyWlLk6GJQsqaUBKTNV-1">
          <mxGeometry x="605" y="592.5" width="85" height="55" as="geometry" />
        </mxCell>
        <mxCell id="D3r67NptOrPsIdnhS9hk-57" value="Return false" style="rounded=0;whiteSpace=wrap;html=1;" vertex="1" parent="WIyWlLk6GJQsqaUBKTNV-1">
          <mxGeometry x="740" y="595" width="80" height="50" as="geometry" />
        </mxCell>
        <mxCell id="D3r67NptOrPsIdnhS9hk-58" value="" style="shape=flexArrow;endArrow=classic;html=1;rounded=0;" edge="1" parent="WIyWlLk6GJQsqaUBKTNV-1">
          <mxGeometry width="50" height="50" relative="1" as="geometry">
            <mxPoint x="690" y="640" as="sourcePoint" />
            <mxPoint x="730" y="640.5" as="targetPoint" />
          </mxGeometry>
        </mxCell>
        <mxCell id="D3r67NptOrPsIdnhS9hk-64" style="edgeStyle=orthogonalEdgeStyle;rounded=0;orthogonalLoop=1;jettySize=auto;html=1;exitX=0.5;exitY=1;exitDx=0;exitDy=0;" edge="1" parent="WIyWlLk6GJQsqaUBKTNV-1" source="D3r67NptOrPsIdnhS9hk-61" target="D3r67NptOrPsIdnhS9hk-65">
          <mxGeometry relative="1" as="geometry">
            <mxPoint x="180" y="1370" as="targetPoint" />
          </mxGeometry>
        </mxCell>
        <mxCell id="D3r67NptOrPsIdnhS9hk-61" value="START" style="ellipse;whiteSpace=wrap;html=1;" vertex="1" parent="WIyWlLk6GJQsqaUBKTNV-1">
          <mxGeometry x="120" y="1210" width="120" height="80" as="geometry" />
        </mxCell>
        <mxCell id="D3r67NptOrPsIdnhS9hk-63" value="END" style="ellipse;whiteSpace=wrap;html=1;" vertex="1" parent="WIyWlLk6GJQsqaUBKTNV-1">
          <mxGeometry x="470" y="1040" width="120" height="80" as="geometry" />
        </mxCell>
        <mxCell id="D3r67NptOrPsIdnhS9hk-66" style="edgeStyle=orthogonalEdgeStyle;rounded=0;orthogonalLoop=1;jettySize=auto;html=1;exitX=0.5;exitY=1;exitDx=0;exitDy=0;" edge="1" parent="WIyWlLk6GJQsqaUBKTNV-1" source="D3r67NptOrPsIdnhS9hk-65" target="D3r67NptOrPsIdnhS9hk-67">
          <mxGeometry relative="1" as="geometry">
            <mxPoint x="180" y="1450" as="targetPoint" />
          </mxGeometry>
        </mxCell>
        <mxCell id="D3r67NptOrPsIdnhS9hk-65" value="B" style="ellipse;whiteSpace=wrap;html=1;aspect=fixed;" vertex="1" parent="WIyWlLk6GJQsqaUBKTNV-1">
          <mxGeometry x="140" y="1330" width="80" height="80" as="geometry" />
        </mxCell>
        <mxCell id="D3r67NptOrPsIdnhS9hk-69" style="edgeStyle=orthogonalEdgeStyle;rounded=0;orthogonalLoop=1;jettySize=auto;html=1;exitX=0.5;exitY=1;exitDx=0;exitDy=0;" edge="1" parent="WIyWlLk6GJQsqaUBKTNV-1" source="D3r67NptOrPsIdnhS9hk-67" target="D3r67NptOrPsIdnhS9hk-70">
          <mxGeometry relative="1" as="geometry">
            <mxPoint x="180" y="1540" as="targetPoint" />
          </mxGeometry>
        </mxCell>
        <mxCell id="D3r67NptOrPsIdnhS9hk-67" value="Masukkan nama" style="rounded=1;whiteSpace=wrap;html=1;" vertex="1" parent="WIyWlLk6GJQsqaUBKTNV-1">
          <mxGeometry x="120" y="1440" width="120" height="60" as="geometry" />
        </mxCell>
        <mxCell id="D3r67NptOrPsIdnhS9hk-73" style="edgeStyle=orthogonalEdgeStyle;rounded=0;orthogonalLoop=1;jettySize=auto;html=1;exitX=0.5;exitY=1;exitDx=0;exitDy=0;" edge="1" parent="WIyWlLk6GJQsqaUBKTNV-1" source="D3r67NptOrPsIdnhS9hk-70" target="D3r67NptOrPsIdnhS9hk-74">
          <mxGeometry relative="1" as="geometry">
            <mxPoint x="190" y="1660" as="targetPoint" />
          </mxGeometry>
        </mxCell>
        <mxCell id="D3r67NptOrPsIdnhS9hk-70" value="Masukkan password" style="rounded=1;whiteSpace=wrap;html=1;" vertex="1" parent="WIyWlLk6GJQsqaUBKTNV-1">
          <mxGeometry x="120" y="1550" width="120" height="60" as="geometry" />
        </mxCell>
        <mxCell id="D3r67NptOrPsIdnhS9hk-71" value="" style="shape=flexArrow;endArrow=classic;html=1;rounded=0;" edge="1" parent="WIyWlLk6GJQsqaUBKTNV-1">
          <mxGeometry width="50" height="50" relative="1" as="geometry">
            <mxPoint x="80" y="1460" as="sourcePoint" />
            <mxPoint x="120" y="1460.5" as="targetPoint" />
          </mxGeometry>
        </mxCell>
        <mxCell id="D3r67NptOrPsIdnhS9hk-72" value="" style="shape=flexArrow;endArrow=classic;html=1;rounded=0;" edge="1" parent="WIyWlLk6GJQsqaUBKTNV-1">
          <mxGeometry width="50" height="50" relative="1" as="geometry">
            <mxPoint x="80" y="1560" as="sourcePoint" />
            <mxPoint x="120" y="1560.5" as="targetPoint" />
          </mxGeometry>
        </mxCell>
        <mxCell id="D3r67NptOrPsIdnhS9hk-75" style="edgeStyle=orthogonalEdgeStyle;rounded=0;orthogonalLoop=1;jettySize=auto;html=1;exitX=0.5;exitY=1;exitDx=0;exitDy=0;" edge="1" parent="WIyWlLk6GJQsqaUBKTNV-1" source="D3r67NptOrPsIdnhS9hk-74" target="D3r67NptOrPsIdnhS9hk-76">
          <mxGeometry relative="1" as="geometry">
            <mxPoint x="180" y="1800" as="targetPoint" />
          </mxGeometry>
        </mxCell>
        <mxCell id="D3r67NptOrPsIdnhS9hk-77" style="edgeStyle=orthogonalEdgeStyle;rounded=0;orthogonalLoop=1;jettySize=auto;html=1;exitX=1;exitY=0.5;exitDx=0;exitDy=0;" edge="1" parent="WIyWlLk6GJQsqaUBKTNV-1" source="D3r67NptOrPsIdnhS9hk-74" target="D3r67NptOrPsIdnhS9hk-78">
          <mxGeometry relative="1" as="geometry">
            <mxPoint x="300" y="1700" as="targetPoint" />
          </mxGeometry>
        </mxCell>
        <mxCell id="D3r67NptOrPsIdnhS9hk-74" value="Apakah nama dan password sudah benar?" style="rhombus;whiteSpace=wrap;html=1;" vertex="1" parent="WIyWlLk6GJQsqaUBKTNV-1">
          <mxGeometry x="140" y="1660" width="80" height="80" as="geometry" />
        </mxCell>
        <mxCell id="D3r67NptOrPsIdnhS9hk-82" style="edgeStyle=orthogonalEdgeStyle;rounded=0;orthogonalLoop=1;jettySize=auto;html=1;" edge="1" parent="WIyWlLk6GJQsqaUBKTNV-1" source="D3r67NptOrPsIdnhS9hk-76" target="D3r67NptOrPsIdnhS9hk-83">
          <mxGeometry relative="1" as="geometry">
            <mxPoint x="180" y="1920" as="targetPoint" />
          </mxGeometry>
        </mxCell>
        <mxCell id="D3r67NptOrPsIdnhS9hk-76" value="Tampilkan menu utama" style="rounded=0;whiteSpace=wrap;html=1;" vertex="1" parent="WIyWlLk6GJQsqaUBKTNV-1">
          <mxGeometry x="120" y="1810" width="120" height="60" as="geometry" />
        </mxCell>
        <mxCell id="D3r67NptOrPsIdnhS9hk-79" style="edgeStyle=orthogonalEdgeStyle;rounded=0;orthogonalLoop=1;jettySize=auto;html=1;exitX=1;exitY=0.25;exitDx=0;exitDy=0;entryX=1;entryY=0.5;entryDx=0;entryDy=0;" edge="1" parent="WIyWlLk6GJQsqaUBKTNV-1" source="D3r67NptOrPsIdnhS9hk-78" target="D3r67NptOrPsIdnhS9hk-67">
          <mxGeometry relative="1" as="geometry" />
        </mxCell>
        <mxCell id="D3r67NptOrPsIdnhS9hk-78" value="Nama dan password salah" style="rounded=1;whiteSpace=wrap;html=1;" vertex="1" parent="WIyWlLk6GJQsqaUBKTNV-1">
          <mxGeometry x="270" y="1670" width="120" height="60" as="geometry" />
        </mxCell>
        <mxCell id="D3r67NptOrPsIdnhS9hk-81" value="" style="shape=flexArrow;endArrow=classic;html=1;rounded=0;" edge="1" parent="WIyWlLk6GJQsqaUBKTNV-1">
          <mxGeometry width="50" height="50" relative="1" as="geometry">
            <mxPoint x="390" y="1710" as="sourcePoint" />
            <mxPoint x="430" y="1710.5" as="targetPoint" />
          </mxGeometry>
        </mxCell>
        <mxCell id="D3r67NptOrPsIdnhS9hk-83" value="END" style="ellipse;whiteSpace=wrap;html=1;" vertex="1" parent="WIyWlLk6GJQsqaUBKTNV-1">
          <mxGeometry x="120" y="1910" width="120" height="80" as="geometry" />
        </mxCell>
      </root>
    </mxGraphModel>
  </diagram>
</mxfile>
